<svg width="483" height="131" viewBox="0 0 483 131" fill="none" xmlns="http://www.w3.org/2000/svg">
<path d="M194.276 46.746L194.362 49.928C190.979 49.8133 188.858 50.2147 187.998 51.132C186.794 52.2213 185.361 54.5433 183.698 58.098L171.228 82.264V103.42L179.484 103.334V106.086L155.232 106V103.334L163.144 103.42V82.694L144.224 49.412H137.688V46.746H160.134V49.412H153.77L169.336 78.222L179.14 59.044C180.86 56.0627 181.72 53.798 181.72 52.25C181.72 51.562 181.261 50.8453 180.344 50.1C179.885 49.6413 178.223 49.4693 175.356 49.584L175.442 46.746H194.276ZM227.754 71.428C231.424 75.04 233.258 79.8273 233.258 85.79C233.258 91.6953 231.223 96.6547 227.152 100.668C223.082 104.681 217.75 106.745 211.156 106.86C205.939 106.917 201.524 105.111 197.912 101.442C194.472 97.7153 192.752 92.8133 192.752 86.736C192.752 80.6013 194.673 75.5847 198.514 71.686C202.356 67.7873 207.573 65.838 214.166 65.838C219.613 65.838 224.142 67.7013 227.754 71.428ZM214.596 104.108C218.208 104.108 220.903 102.589 222.68 99.55C224.515 96.5113 225.432 92.584 225.432 87.768C225.432 82.8947 224.2 78.48 221.734 74.524C219.212 70.6253 216.087 68.676 212.36 68.676C204.506 68.676 200.578 73.6927 200.578 83.726C200.578 89.058 201.553 93.5587 203.502 97.228C205.968 101.815 209.666 104.108 214.596 104.108ZM285.128 103.678V106.086H271.368L271.282 99.12C267.727 104.452 262.653 107.118 256.06 107.118C250.842 107.118 247.402 105.57 245.74 102.474C244.765 100.697 244.278 97.4287 244.278 92.67V71.944C244.106 69.9947 243.131 69.02 241.354 69.02H237.312V66.698H251.33V91.81C251.33 95.422 251.932 98.0307 253.136 99.636C254.397 101.184 256.805 101.958 260.36 101.958C262.882 101.958 265.29 100.869 267.584 98.69C269.877 96.3967 271.024 94.2467 271.024 92.24V71.944C270.909 69.9947 269.877 69.02 267.928 69.02H263.972V66.698H277.99V101.786C277.99 102.417 278.219 102.904 278.678 103.248C279.194 103.535 279.681 103.678 280.14 103.678H285.128ZM296.87 101.7V72.03C296.813 70.0807 295.838 69.106 293.946 69.106H289.99V66.698H304.094V74.61C304.725 73.062 305.9 71.3993 307.62 69.622C310.2 67.042 312.923 65.752 315.79 65.752C317.51 65.752 318.886 66.3253 319.918 67.472C320.95 68.6187 321.466 69.9947 321.466 71.6C321.466 74.7533 320.033 76.4733 317.166 76.76C316.019 74.2373 314.127 72.976 311.49 72.976C309.598 72.976 307.878 73.922 306.33 75.814C304.782 77.706 304.008 79.856 304.008 82.264V101.7C304.18 103.019 304.839 103.678 305.986 103.678H310.974V106H290.076V103.678H294.892C295.924 103.678 296.583 103.019 296.87 101.7ZM375.063 46.746L375.235 64.204H372.569C372.168 59.216 370.792 55.5753 368.441 53.282C366.148 50.9313 362.307 49.6987 356.917 49.584L342.211 49.412V74.352H352.703C355.226 74.352 357.032 73.6353 358.121 72.202C359.44 70.3673 360.099 67.7013 360.099 64.204H362.851V88.026H360.099C360.099 84.6433 359.411 82.006 358.035 80.114C356.659 78.222 354.882 77.276 352.703 77.276H342.211V103.334H350.209V106H326.473V103.334H334.557V49.412H326.473V46.746H375.063ZM415.353 86.048H388.005C388.005 91.0933 389.266 95.0207 391.789 97.83C394.369 100.869 398.153 102.388 403.141 102.388C405.778 102.388 409.19 101.069 413.375 98.432L414.493 99.292C410.422 104.28 405.377 106.774 399.357 106.774C393.337 106.774 388.607 104.968 385.167 101.356C381.956 97.8587 380.351 93.2147 380.351 87.424C380.351 81.6333 382.071 76.6453 385.511 72.46C389.008 68.2173 393.681 66.096 399.529 66.096C404.345 66.096 408.215 67.73 411.139 70.998C414.063 74.2087 415.525 78.1647 415.525 82.866C415.525 83.4967 415.468 84.5573 415.353 86.048ZM407.957 82.952C407.957 78.824 407.183 75.4413 405.635 72.804C404.144 70.1667 401.88 68.848 398.841 68.848C395.802 68.848 393.251 70.0807 391.187 72.546C389.123 75.0113 388.091 78.4227 388.091 82.78C398.812 83.0667 405.434 83.124 407.957 82.952ZM455.33 86.048H427.982C427.982 91.0933 429.243 95.0207 431.766 97.83C434.346 100.869 438.13 102.388 443.118 102.388C445.755 102.388 449.166 101.069 453.352 98.432L454.47 99.292C450.399 104.28 445.354 106.774 439.334 106.774C433.314 106.774 428.584 104.968 425.144 101.356C421.933 97.8587 420.328 93.2147 420.328 87.424C420.328 81.6333 422.048 76.6453 425.488 72.46C428.985 68.2173 433.658 66.096 439.506 66.096C444.322 66.096 448.192 67.73 451.116 70.998C454.04 74.2087 455.502 78.1647 455.502 82.866C455.502 83.4967 455.444 84.5573 455.33 86.048ZM447.934 82.952C447.934 78.824 447.16 75.4413 445.612 72.804C444.121 70.1667 441.856 68.848 438.818 68.848C435.779 68.848 433.228 70.0807 431.164 72.546C429.1 75.0113 428.068 78.4227 428.068 82.78C438.789 83.0667 445.411 83.124 447.934 82.952ZM481.632 103.678V106H460.648V103.678H465.636C466.955 103.678 467.614 103.019 467.614 101.7L467.528 52.078C467.471 50.1287 466.496 49.154 464.604 49.154H460.562V46.832H474.666V101.7C474.666 103.019 475.326 103.678 476.644 103.678H481.632Z" fill="#685C79"/>
<path d="M29.5656 32.4403C33.3198 32.2195 37.8988 28.5674 41.1451 26.7229C44.559 24.7832 48.6866 21.2901 52.3627 20.0647" stroke="#685C79" stroke-width="3" stroke-linecap="round"/>
<path d="M47.0567 111L104.057 55.5L133.557 63.5C133.557 63.5 133.557 77.5 122.557 96C111.557 114.5 97.6751 122.399 81.0567 126.5C53.9954 133.178 23.0567 120 23.0567 120L47.0567 111Z" fill="#D32F5A"/>
<path d="M40.8772 46.5C40.8772 46.5 62.2702 37.5812 76.3772 33C88.9029 28.9323 108.877 24 108.877 24C108.877 24 114.377 72 88.8772 96C63.3772 120 47.8772 118 25.3772 120C2.87722 122 40.8772 46.5 40.8772 46.5Z" fill="#E25085"/>
<path d="M24.2064 27.5001C39.7357 17.0014 54.2065 8 54.2065 8L68.2065 0C68.2065 0 86.2805 24.9682 86.2065 43C86.1235 63.2026 81.5994 76.3744 68.2065 91.5C55.2925 106.085 20.8555 119 20.8555 119C20.8555 119 13.5231 105.878 9.85554 97C5.70596 86.9551 1.63318 81.3647 1.35554 70.5C0.869732 51.4898 1.23601 43.0294 24.2064 27.5001Z" fill="#E86B9E"/>
</svg>
